<?xml version="1.0" encoding="utf-8"?>
<!-- Generator: Adobe Illustrator 26.1.0, SVG Export Plug-In . SVG Version: 6.00 Build 0)  -->
<svg version="1.1" id="Layer_1" xmlns="http://www.w3.org/2000/svg" xmlns:xlink="http://www.w3.org/1999/xlink" x="0px" y="0px"
	 viewBox="0 0 140 70" style="enable-background:new 0 0 140 70;" xml:space="preserve">
<style type="text/css">
	.st0{fill:#FFFFFF;}
	.st1{fill-rule:evenodd;clip-rule:evenodd;fill:#F4A451;}
	.st2{fill-rule:evenodd;clip-rule:evenodd;fill:#9ED8F6;}
	.st3{fill:#0D3760;}
	.st4{fill-rule:evenodd;clip-rule:evenodd;fill:#0D3760;}
</style>
<g>
	<path class="st1" d="M69.8,34.4c0.6-7,1.1-8.5-1.4-15.4c-1.6,0.8-2.8,1.6-4.3,2.6c-5.1-1-6.8-1-12-0.7c-0.7-1.5-1.4-3-2.1-4.5
		c-9.9,10.1-9,25.3-1.4,35.3c4.1,5.5,9.9,9.1,17.8,10.5c4.3,0.8,9.4,0.1,11.3-2c2.5-2.6,0.8-6.7-5.9-6.6c-7.6,0.1-9.4-0.4-13.8-9.9
		c0.3-1.1,0.7-2.1,1-3.2C62.6,38.4,66.2,36.4,69.8,34.4L69.8,34.4z"/>
	<path class="st2" d="M87,55.5c-1-0.4-1.9-0.9-2.9-1.3c-2-0.9-5-1.3-8-1.6c-3.6-0.3-6.6,0.2-10-1.8c-4.5-2.7-8.2-8.4-2.2-11.9
		c1.8-1,3.6-2.1,5.4-3.1c5.7-14.9,18.5-15.6,24.3-5.9c1.8,3,1.6,9.2,1.4,12.7C101.3,47.1,91.6,53.7,87,55.5L87,55.5z"/>
	<path class="st3" d="M86.8,30.1c-0.2,0.8-0.3,1.6-0.5,2.4c-0.6,2.8-1.2,5.7-1.1,8.7c0.1,2.2,0.4,3.3,1.1,3.5c1,0.3,2.6-0.4,4.9-1.7
		c2.7-1.6,4.2-3.9,4.6-6.3c0.3-1.7,0.1-3.6-0.5-5.3c-0.6-1.7-1.7-3.4-3.2-4.6c-2.4-2.1-5.7-3.3-9.6-2.9c-3.5,0.4-5.9,1.1-7.6,2.6
		c-1.5,1.4-2.6,3.7-3.5,7.2c-0.7,2.8-0.1,2.1-2.7,3.8c-2.5,1.6-4.4,2.5-6.8,3.5l-0.7,0.3c-1.3,0.6-2.3,1-1.8,2.5
		c1,3.1,2.1,5,3.5,6.2c1.3,1.1,3,1.6,5,1.7c1.6,0.1,3.2,0,4.9-0.1c5.3-0.3,10.8-0.5,14.9,3.1c1.5,1.3-0.4,3.8-2.8,2
		c-3.2-2.2-7.6-2-11.9-1.8c-1.8,0.1-3.5,0.2-5.2,0.1c-2.8-0.1-5.1-0.8-7.1-2.4c-1.9-1.6-3.4-4.1-4.5-7.8c-1-3.3,0.7-5.3,3.7-6.6
		l0.7-0.3c2-0.9,3.7-1.6,5.6-2.8c2.5-1.6,1.8-1.8,2.7-4.6c1-3,2.2-5.1,3.8-6.6c2.3-2.2,5.3-3,9.5-3.5c5-0.6,9.2,1,12.2,3.7
		c1.9,1.7,3.3,3.8,4.1,6c0.8,2.3,1.1,4.7,0.6,7.1c-0.6,3.3-2.6,6.4-6.2,8.6c-3,1.7-5.5,2.6-7.4,2.1c-2.2-0.6-3.5-2.6-3.6-6.6
		c-0.1-3.4,0.6-6.5,1.2-9.5c0.1-0.7,0.3-1.4,0.4-2.1C83.9,27.2,87.3,27.5,86.8,30.1L86.8,30.1z"/>
	<path class="st3" d="M68.9,21.2c-0.2-0.9-0.4-1.7-0.7-2.7c-0.2-0.6-0.3-0.5-1.2,0.3c-1,0.9-2.4,2.4-2.9,2.8l-0.6,0.5l-0.7-0.1
		c-1.9-0.3-3.2-0.4-4.5-0.4c-1.3,0-2.6,0.1-4.5,0.3l-1.1,0.1l-0.5-1c-0.3-0.6-0.6-1.1-0.9-1.5c-0.1-0.1-0.6-1-1.1-1.6
		c-0.3-0.4-0.4-0.6-0.6-0.4c-2.5,2-5,7.8-5.8,10.8c-1.2,4.3-1.4,8.8-0.9,12.7c0,0.3,0.1,0.5,0.1,0.8c1.1,7.3,5.2,13.2,10.8,17
		c5.3,3.7,12.1,5.6,18.8,5c2.7-0.2,3,3.1,0.4,3.3c-7.6,0.7-15.1-1.4-21.2-5.6c-6.3-4.4-10.9-11.1-12.2-19.3c0-0.3-0.1-0.6-0.1-1
		c-0.5-4.3-0.3-9.2,1-14c0.9-3.2,2.2-6.3,4.1-9c1-1.5,3.5-5.1,5.4-5c1.7,0.1,3.3,2.8,4.2,4.3c0.1,0.2,0.3,0.5,0.4,0.7
		c1.5-0.2,2.7-0.2,3.8-0.2c1.2,0,2.5,0.2,4.1,0.4l0.5-0.4c1.9-1.6,5.7-5.2,7.7-2.3c0.5,0.8,1.2,3.1,1.4,4.2
		C72.8,22.9,69.3,22.7,68.9,21.2L68.9,21.2z"/>
	<path class="st4" d="M75,35c0.8-0.2,1.7,0.5,1.9,1.5c0.2,1-0.3,2-1.1,2.2c-0.8,0.2-1.7-0.5-1.9-1.5C73.6,36.1,74.1,35.2,75,35
		L75,35z"/>
	<path class="st4" d="M52.8,28.3c0.9,0,1.5,0.9,1.5,1.9c0,1-0.7,1.9-1.6,1.8c-0.9,0-1.5-0.9-1.5-1.9C51.2,29.1,52,28.2,52.8,28.3
		L52.8,28.3z"/>
	<path class="st4" d="M62.5,28.7c0.9,0,1.5,0.9,1.5,1.9c0,1-0.7,1.9-1.6,1.8c-0.9,0-1.5-0.9-1.5-1.9C60.9,29.5,61.6,28.6,62.5,28.7
		L62.5,28.7z"/>
	<path class="st3" d="M79.4,63c7.3-1.1,13-4.9,17.2-10c5.4-6.5,8.2-15,8.3-22.5c0.1-6.1-2.1-12.2-5.9-16.8c-3.5-4.1-8.3-7-14.1-7.3
		c-1.3-0.1-2.7,0-4.1,0.3c-1.2,0.3-2.5,0.8-3.6,1.4c-1.4,0.8-2.4,1.5-3.1,2.1c-3.3,2.4-4.2,1.5-7.5-0.6c-0.3-0.2-0.6-0.4-1.4-0.9
		c-4.2-2.6-9.2-3.3-14-1.6c-3.5,1.2-6.7,3.7-8.9,7.3c-0.4,0.6-0.8,1.3-1.1,2c-1.1,2.4-4.3,1.3-3.1-1.4c0.4-0.8,0.8-1.6,1.3-2.4
		c2.6-4.2,6.4-7.2,10.7-8.7C55.9,2.1,62,2.8,67,6l1.4,0.9c2.2,1.4,2,2,3.7,0.7C72.9,7,74,6.3,75.5,5.4c1.5-0.9,3-1.5,4.6-1.8
		c1.7-0.4,3.4-0.5,5-0.4c6.8,0.4,12.5,3.7,16.5,8.5c4.3,5.2,6.7,12.1,6.6,19c-0.1,8.3-3.2,17.6-9,24.6c-4.7,5.6-11.1,9.8-19.3,11.1
		C77.1,66.8,76.9,63.4,79.4,63L79.4,63z"/>
</g>
</svg>
